<?xml version="1.0" encoding="utf-8"?>
<!-- Generator: Adobe Illustrator 23.0.6, SVG Export Plug-In . SVG Version: 6.00 Build 0)  -->
<svg version="1.1" xmlns="http://www.w3.org/2000/svg" xmlns:xlink="http://www.w3.org/1999/xlink" x="0px" y="0px"
	 viewBox="0 0 133 172" style="enable-background:new 0 0 133 172;" xml:space="preserve">
<style type="text/css">
	.st0{fill:#DB0032;}
	.st1{fill:#00C9AE;}
	.st2{fill:#FFB71B;}
	.st3{fill:#101820;}
	.st4{display:none;}
	.st5{display:inline;fill:#DB0032;}
	.st6{display:inline;fill:#FFB71B;}
	.st7{display:inline;fill:#00C9AE;}
	.st8{display:inline;fill:#101820;}
</style>
<g id="logo">
	<g>
		<path class="st0" d="M64.24,91.36c-0.1-0.09-0.2-0.17-0.3-0.26c-0.84-0.71-1.11-2.06-0.6-3.03C76.75,62.34,90.1,36.58,103.42,10.8
			c-9.24,0.41-18.47,0.82-27.71,1.23c-8.55,19.54-17.1,39.08-25.64,58.63c-1.05,2.41-4.52,1.42-4.8-0.93
			c-1.95-16.12-5.29-31.98-9.95-47.53c-5.79,2.12-11.58,4.23-17.37,6.35c7.06,29.28,9.27,60.38,12.6,90.32
			c0.19,0.32,1.71,21.68,4.23,41.77c5.6-2.75,11.55-4.4,17.79-4.86c-4.23-22.88-1.32-30.77-5.54-53.65
			c-0.46-2.5,3.39-3.72,4.63-1.62c9.18,15.64,16.43,30.07,28.75,46.88c10.15-5.52,20.3-11.03,30.46-16.55
			c-15.17-12.85-30.34-25.69-45.51-38.54C64.89,92.09,64.52,91.76,64.24,91.36z"/>
		<path class="st1" d="M57.06,151.85c3.65-4.63,7-9.46,10.06-14.53c-5.27-8.62-10.05-18.02-14.97-25.43
			C55.35,129.18,54.72,136.75,57.06,151.85z"/>
		<path class="st1" d="M55.97,44.5c-0.34-0.16-0.66-0.39-0.94-0.73c-4.2-5.06-8.41-10.12-12.61-15.17
			c2.8,10.43,5.02,21.01,6.65,31.69C51.36,55.03,53.67,49.77,55.97,44.5z"/>
		<path class="st2" d="M77,84.42c4.12-1.16,5.13-2.84,6.91-6.64c3.07-6.56,6.21-13.07,9.44-19.55c6.38-12.8,13.09-25.43,20.07-37.91
			c-1.8-2.46-3.6-4.92-5.4-7.37c-12.65,24.5-25.34,48.97-38.08,73.43C72.3,85.72,74.65,85.08,77,84.42z"/>
		<path class="st2" d="M108.15,107.23c-8.6-6.04-17.65-11.39-25.29-18.68c-0.19-0.18-0.33-0.37-0.45-0.57
			c-0.84,0.38-1.76,0.66-2.76,0.95c-2.61,0.75-5.23,1.47-7.85,2.18c14.44,12.23,28.89,24.46,43.33,36.7
			c2.5-3.23,6.3-8.62,4.81-10.96C117.51,113,111.82,109.81,108.15,107.23z"/>
		<path class="st3" d="M118.27,108.52c-10.31-8.47-22.37-14.52-32.06-23.78c-0.01-0.01-0.01-0.01-0.02-0.01
			c1.84-2.71,3-6.27,4.37-9.16c1.69-3.57,3.41-7.12,5.15-10.66c7.25-14.76,14.93-29.31,22.99-43.65c0.42-0.75,0.34-1.85-0.17-2.55
			c-2.57-3.5-5.13-7.01-7.7-10.51c-0.2-0.28-0.44-0.48-0.68-0.65c-0.28-1.14-1.37-2.05-2.66-2c-11.22,0.5-22.44,0.99-33.67,1.49
			c-0.84,0.04-1.74,0.62-2.08,1.4C67.2,18.83,62.66,29.21,58.11,39.6c-6.07-7.31-12.15-14.61-18.22-21.92
			c-0.45-0.54-1.01-0.82-1.58-0.92c-0.65-0.4-1.47-0.53-2.19-0.27c-6.65,2.43-24.38,7.87-23.77,10.35
			c7.47,30.34,9.87,62.54,13.27,93.6c0.03,0.28,1.78,23.26,4.56,44.34c0.26,1.95,2.26,2.9,3.95,1.91
			c6.67-3.93,13.91-5.87,21.64-5.99c1.06-0.02,2.13-1.01,2.32-2.08c4.4-5.25,8.41-10.77,12.05-16.55c2.54,3.83,5.21,7.39,8.08,10.38
			c0.83,0.86,2.16,0.7,3.09,0.2c11.5-6.25,22.99-12.49,34.49-18.74c0.6-0.01,1.21-0.28,1.71-0.92c1.8-2.28,3.23-4.74,4.73-7.22
			c1.21-1.99,4-4.63,4.37-7.03C127.23,114.69,120.8,110.6,118.27,108.52z M108.02,12.94c1.8,2.46,3.6,4.92,5.4,7.37
			c-6.98,12.48-13.69,25.11-20.07,37.91c-3.23,6.48-6.37,13-9.44,19.55c-1.77,3.79-2.79,5.48-6.91,6.64
			c-2.35,0.66-4.71,1.3-7.06,1.95C82.68,61.91,95.37,37.44,108.02,12.94z M55.03,43.78c0.28,0.34,0.6,0.57,0.94,0.73
			c-2.3,5.26-4.6,10.53-6.91,15.79c-1.63-10.68-3.85-21.26-6.65-31.69C46.62,33.66,50.82,38.72,55.03,43.78z M57.06,151.85
			c-2.33-15.1-1.71-22.67-4.9-39.96c4.91,7.41,9.7,16.81,14.97,25.43C64.06,142.38,60.71,147.22,57.06,151.85z M80.4,147.39
			c-12.32-16.8-19.57-31.24-28.75-46.88c-1.24-2.11-5.09-0.88-4.63,1.62c4.23,22.88,1.32,30.77,5.54,53.65
			c-6.24,0.45-12.19,2.11-17.79,4.86c-2.51-20.09-4.03-41.44-4.23-41.77C27.21,88.92,25,57.83,17.94,28.54
			c5.79-2.12,11.58-4.23,17.37-6.35c4.67,15.55,8,31.41,9.95,47.53c0.28,2.35,3.75,3.34,4.8,0.93c8.55-19.54,17.1-39.08,25.64-58.63
			c9.24-0.41,18.47-0.82,27.71-1.23C90.1,36.58,76.75,62.34,63.34,88.07c-0.51,0.98-0.24,2.32,0.6,3.03c0.1,0.09,0.2,0.17,0.3,0.26
			c0.28,0.4,0.65,0.73,1.11,0.94c15.17,12.85,30.34,25.69,45.51,38.54C100.71,136.35,90.55,141.87,80.4,147.39z M115.13,127.81
			c-14.44-12.23-28.89-24.46-43.33-36.7c2.62-0.72,5.24-1.43,7.85-2.18c1-0.29,1.92-0.58,2.76-0.95c0.12,0.2,0.26,0.39,0.45,0.57
			c7.64,7.29,16.7,12.63,25.29,18.68c3.67,2.58,9.36,5.77,11.8,9.62C121.43,119.19,117.63,124.58,115.13,127.81z"/>
	</g>
</g>
<g id="colors" class="st4">
	<rect x="17" y="-77" class="st5" width="28" height="28"/>
	<rect x="59" y="-77" class="st6" width="28" height="28"/>
	<rect x="101" y="-77" class="st7" width="28" height="28"/>
	<rect x="143" y="-77" class="st8" width="28" height="28"/>
</g>
</svg>
